HIERARCHY
ROOT Hips
{
	OFFSET 0.000000 89.005402 0.000000
	CHANNELS 6 Xposition Yposition Zposition Xrotation Yrotation Zrotation
	JOINT Spine
	{
		OFFSET 0.116900 10.681000 0.373400
		CHANNELS 3 Xrotation Yrotation Zrotation
		JOINT Spine1
		{
			OFFSET 0.000000 13.840401 0.053500
			CHANNELS 3 Xrotation Yrotation Zrotation
			JOINT Spine2
			{
				OFFSET 0.000000 14.712700 -0.366200
				CHANNELS 3 Xrotation Yrotation Zrotation
				JOINT Neck
				{
					OFFSET 0.000000 35.415497 -3.314200
					CHANNELS 3 Xrotation Yrotation Zrotation
					JOINT Head
					{
						OFFSET 0.000000 16.899200 1.218300
						CHANNELS 3 Xrotation Yrotation Zrotation
						JOINT HeadTop_End
						{
							OFFSET 0.000000 22.206207 2.192500
							CHANNELS 3 Xrotation Yrotation Zrotation
							End Site
							{
								OFFSET 0.000000 22.314178 0.000000
							}
						}
					}
				}
				JOINT LeftShoulder
				{
					OFFSET 12.896400 26.716293 -4.548400
					CHANNELS 3 Xrotation Yrotation Zrotation
					JOINT LeftArm
					{
						OFFSET 19.027000 -4.857010 -1.718400
						CHANNELS 3 Xrotation Yrotation Zrotation
						JOINT LeftForeArm
						{
							OFFSET 24.179897 0.000000 0.000000
							CHANNELS 3 Xrotation Yrotation Zrotation
							JOINT LeftHand
							{
								OFFSET 27.156403 0.000000 0.000000
								CHANNELS 3 Xrotation Yrotation Zrotation
								JOINT LeftHandIndex1
								{
									OFFSET 16.441200 0.000000 0.000000
									CHANNELS 3 Xrotation Yrotation Zrotation
									JOINT LeftHandIndex2
									{
										OFFSET 4.821899 0.000000 0.000000
										CHANNELS 3 Xrotation Yrotation Zrotation
										JOINT LeftHandIndex3
										{
											OFFSET 6.386497 0.000000 0.000000
											CHANNELS 3 Xrotation Yrotation Zrotation
											JOINT LeftHandIndex4
											{
												OFFSET 5.188988 0.000000 0.000000
												CHANNELS 3 Xrotation Yrotation Zrotation
												End Site
												{
													OFFSET -0.178703 5.185913 0.000177
												}
											}
										}
									}
								}
								JOINT LeftHandThumb1
								{
									OFFSET 6.534897 -5.032593 5.900300
									CHANNELS 3 Xrotation Yrotation Zrotation
									JOINT LeftHandThumb2
									{
										OFFSET 3.818176 -2.204422 2.204423
										CHANNELS 3 Xrotation Yrotation Zrotation
										JOINT LeftHandThumb3
										{
											OFFSET 3.252098 -1.877594 1.877601
											CHANNELS 3 Xrotation Yrotation Zrotation
											JOINT LeftHandThumb4
											{
												OFFSET 5.251778 -3.032120 3.032117
												CHANNELS 3 Xrotation Yrotation Zrotation
												End Site
												{
													OFFSET 0.000023 6.780014 0.000000
												}
											}
										}
									}
								}
							}
						}
					}
				}
				JOINT RightShoulder
				{
					OFFSET -12.896300 26.716293 -4.548400
					CHANNELS 3 Xrotation Yrotation Zrotation
					JOINT RightArm
					{
						OFFSET -19.027000 -4.857010 -1.718400
						CHANNELS 3 Xrotation Yrotation Zrotation
						JOINT RightForeArm
						{
							OFFSET -24.179897 0.000000 0.000000
							CHANNELS 3 Xrotation Yrotation Zrotation
							JOINT RightHand
							{
								OFFSET -27.156403 0.000000 0.000000
								CHANNELS 3 Xrotation Yrotation Zrotation
								JOINT RightHandThumb1
								{
									OFFSET -6.591202 -4.852203 5.988100
									CHANNELS 3 Xrotation Yrotation Zrotation
									JOINT RightHandThumb2
									{
										OFFSET -3.818176 -2.204422 2.204423
										CHANNELS 3 Xrotation Yrotation Zrotation
										JOINT RightHandThumb3
										{
											OFFSET -3.252098 -1.877594 1.877601
											CHANNELS 3 Xrotation Yrotation Zrotation
											JOINT RightHandThumb4
											{
												OFFSET -5.251778 -3.032120 3.032117
												CHANNELS 3 Xrotation Yrotation Zrotation
												End Site
												{
													OFFSET -0.000023 6.780014 0.000000
												}
											}
										}
									}
								}
								JOINT RightHandIndex1
								{
									OFFSET -16.029404 0.000000 0.000000
									CHANNELS 3 Xrotation Yrotation Zrotation
									JOINT RightHandIndex2
									{
										OFFSET -5.213303 0.000000 0.000000
										CHANNELS 3 Xrotation Yrotation Zrotation
										JOINT RightHandIndex3
										{
											OFFSET -6.386528 0.000000 0.000000
											CHANNELS 3 Xrotation Yrotation Zrotation
											JOINT RightHandIndex4
											{
												OFFSET -5.189026 0.000000 0.000000
												CHANNELS 3 Xrotation Yrotation Zrotation
												End Site
												{
													OFFSET 0.236702 5.183624 0.001972
												}
											}
										}
									}
								}
							}
						}
					}
				}
			}
		}
	}
	JOINT LeftUpLeg
	{
		OFFSET 14.073000 -7.904099 -1.463000
		CHANNELS 3 Xrotation Yrotation Zrotation
		JOINT LeftLeg
		{
			OFFSET -0.109806 -34.073280 4.093200
			CHANNELS 3 Xrotation Yrotation Zrotation
			JOINT LeftFoot
			{
				OFFSET 0.109806 -29.899420 -6.319000
				CHANNELS 3 Xrotation Yrotation Zrotation
				JOINT LeftToeBase
				{
					OFFSET 1.551100 -14.988700 20.535801
					CHANNELS 3 Xrotation Yrotation Zrotation
					JOINT LeftToe_End
					{
						OFFSET 0.221200 0.570800 13.248301
						CHANNELS 3 Xrotation Yrotation Zrotation
						End Site
						{
							OFFSET 0.000000 13.262435 0.000000
						}
					}
				}
			}
		}
	}
	JOINT RightUpLeg
	{
		OFFSET -13.839300 -7.904099 -1.463000
		CHANNELS 3 Xrotation Yrotation Zrotation
		JOINT RightLeg
		{
			OFFSET 0.109694 -34.073219 4.093300
			CHANNELS 3 Xrotation Yrotation Zrotation
			JOINT RightFoot
			{
				OFFSET -0.109694 -29.899384 -6.319200
				CHANNELS 3 Xrotation Yrotation Zrotation
				JOINT RightToeBase
				{
					OFFSET -1.551100 -14.988700 20.535801
					CHANNELS 3 Xrotation Yrotation Zrotation
					JOINT RightToe_End
					{
						OFFSET -0.221200 0.570900 13.248299
						CHANNELS 3 Xrotation Yrotation Zrotation
						End Site
						{
							OFFSET 0.000000 13.262440 0.000000
						}
					}
				}
			}
		}
	}
}
MOTION
Frames: 8
Frame Time: 0.033333
-1.599763 11.657043 -0.840866 82.048399 -4.155949 -2.384508 5.828042 -1.452402 -0.624533 -4.505670 -5.981537 1.125162 -3.978360 -6.220825 0.289840 -32.792554 -1.702236 16.058678 -6.181639 25.655044 -5.100556 -0.000004 0.000000 0.000000 -32.464104 -38.489448 29.683681 -79.087423 -12.514130 -42.757254 -0.000020 -47.567111 0.000000 -117.897644 16.433377 24.986229 -1.882820 2.129433 -39.817008 2.947081 5.081740 -60.200522 0.514378 2.402397 -24.167386 -0.000002 0.000000 0.000000 1.567994 0.456406 2.719342 19.473184 -1.474908 7.636917 -4.536183 -9.613096 1.492977 -0.000004 -0.000001 -0.000001 -20.876769 19.499220 15.427041 -54.224653 48.923873 38.187745 -0.000007 110.391198 -0.000002 -42.846224 -8.113267 -56.437023 8.377131 -4.904142 11.021999 21.620195 -18.183914 -18.379211 -0.702875 -49.821227 -32.535138 -0.000001 0.000002 -0.000001 -0.920028 1.683579 12.434966 0.748111 -2.533491 32.898299 0.615642 -2.316059 29.767829 0.000000 -0.000001 -0.000001 -7.941409 34.306346 17.851114 27.510060 7.211458 -6.746899 -16.774316 15.200390 19.799834 9.797567 12.472256 32.718843 -0.000000 0.000000 0.000001 -36.559868 -42.546266 -49.659307 28.521275 -15.721227 -4.067291 -8.517984 4.180875 24.910875 -2.030067 -0.664375 5.409335 -0.000001 -0.000001 -0.000000 
-1.507106 11.705292 -0.788345 81.920633 -4.291791 -2.468279 5.876202 -1.479651 -0.607757 -4.480312 -5.981223 1.064431 -3.953497 -6.220316 0.230425 -31.922037 -1.858021 16.668634 -7.167205 25.362606 -4.192213 -0.000001 0.000000 -0.000000 -32.383402 -37.569821 30.295823 -77.966309 -10.046400 -41.998540 -0.000002 -51.653678 0.000012 -117.628138 13.930702 25.341423 -1.882826 2.129416 -39.817008 2.947090 5.081735 -60.200529 0.514386 2.402400 -24.167380 -0.000000 0.000001 -0.000002 1.567996 0.456384 2.719340 19.473175 -1.474894 7.636914 -4.536180 -9.613104 1.492982 -0.000001 0.000001 -0.000001 -20.839431 20.377477 13.214919 -53.311918 46.249048 38.252635 -0.000043 110.796754 0.000039 -41.607972 -6.854369 -53.132386 8.377131 -4.904143 11.022001 21.620204 -18.183915 -18.379214 -0.702874 -49.821223 -32.535135 -0.000002 -0.000001 -0.000001 -0.920023 1.683592 12.434961 0.748112 -2.533469 32.898289 0.615645 -2.316065 29.767832 -0.000000 -0.000000 -0.000001 -8.153642 34.811152 18.166459 27.268518 7.685675 -6.497395 -14.903159 14.229891 19.153631 10.086378 12.286762 32.530845 0.000001 -0.000000 -0.000002 -35.734918 -42.910062 -49.090622 28.679073 -16.280260 -3.862972 -13.235807 4.001747 24.834257 0.328581 -1.089337 7.675275 -0.000001 -0.000001 0.000000 
-1.436859 11.745110 -0.745674 81.739626 -4.366738 -2.443935 5.965694 -1.563624 -0.869753 -4.435887 -6.010466 0.962049 -3.910936 -6.251774 0.133684 -31.278329 -1.689155 16.272702 -7.315589 23.869819 -3.037330 -0.000000 -0.000000 0.000000 -31.990246 -37.017518 31.364574 -78.057731 -6.315227 -41.477724 0.000018 -55.322767 0.000028 -116.070404 12.101376 26.142904 -1.882817 2.129424 -39.817001 2.947088 5.081728 -60.200516 0.514383 2.402401 -24.167386 0.000004 0.000000 -0.000001 1.567996 0.456395 2.719341 19.473190 -1.474884 7.636924 -4.536195 -9.613114 1.492983 0.000002 -0.000001 0.000001 -20.797550 21.813039 10.972730 -52.781660 43.458264 37.706971 0.000040 110.929738 -0.000042 -41.348613 -5.702855 -49.708874 8.377131 -4.904141 11.022000 21.620201 -18.183914 -18.379211 -0.702872 -49.821230 -32.535135 -0.000000 -0.000002 -0.000000 -0.920021 1.683590 12.434961 0.748108 -2.533473 32.898293 0.615637 -2.316065 29.767836 0.000001 0.000000 -0.000000 -8.466327 35.871402 18.724832 27.152258 8.639961 -6.164142 -14.451716 12.496966 19.016766 12.349563 11.278782 30.919160 -0.000001 0.000000 0.000000 -34.743451 -43.478870 -48.472241 28.940529 -16.652800 -3.521877 -19.271456 3.344634 24.562571 2.828533 -1.712844 10.287972 0.000001 0.000002 0.000002 
-1.404428 11.842560 -0.739738 81.407809 -4.413154 -2.414768 6.058501 -1.615993 -1.372384 -4.406315 -6.017760 0.852102 -3.883444 -6.263545 0.034328 -30.211825 -0.911722 14.240186 -5.149347 21.187453 -1.741973 -0.000002 0.000000 -0.000001 -31.408468 -37.050798 32.643308 -78.625859 -2.326546 -41.334382 0.000010 -58.164129 0.000011 -113.411876 10.370375 26.719097 -1.882824 2.129417 -39.817001 2.947091 5.081734 -60.200481 0.514384 2.402400 -24.167383 0.000000 -0.000002 0.000003 1.567995 0.456406 2.719343 19.473185 -1.474905 7.636924 -4.536176 -9.613093 1.492975 0.000001 -0.000001 0.000000 -20.788639 23.871585 8.826614 -51.680845 39.413309 35.723570 -0.000002 111.097951 -0.000006 -42.050719 -4.096038 -45.532643 8.377130 -4.904143 11.022003 21.620199 -18.183915 -18.379211 -0.702873 -49.821223 -32.535138 -0.000001 0.000002 0.000002 -0.920045 1.683569 12.434975 0.748115 -2.533457 32.898296 0.615624 -2.316067 29.767819 0.000000 -0.000000 -0.000000 -8.928901 37.574028 19.959925 27.429606 9.118219 -5.911824 -15.344309 9.336914 19.216389 16.352460 10.313814 29.265520 -0.000002 -0.000002 0.000000 -33.693873 -44.002756 -47.821399 29.451769 -16.639746 -3.126344 -24.957216 2.565368 23.904446 4.452152 -2.261751 12.177893 0.000002 0.000000 -0.000002 
-1.388920 12.033905 -0.755867 80.744673 -4.602725 -2.599731 6.106639 -1.491019 -1.911617 -4.426359 -5.915963 0.804005 -3.903597 -6.166721 -0.001250 -27.540337 0.578721 10.429547 0.314046 17.784791 -0.500567 0.000001 -0.000000 0.000000 -30.834647 -37.975753 33.710453 -78.500621 1.450368 -40.868406 0.000008 -60.688403 0.000007 -110.347191 8.584613 26.884907 -1.882823 2.129411 -39.817025 2.947096 5.081736 -60.200543 0.514382 2.402404 -24.167386 0.000001 0.000001 -0.000003 1.567993 0.456387 2.719342 19.473182 -1.474923 7.636915 -4.536179 -9.613111 1.492978 0.000001 0.000000 -0.000001 -20.964958 26.573910 7.166094 -49.694452 34.536189 32.677261 0.000007 110.942046 -0.000002 -43.031913 -1.659585 -40.676543 8.377131 -4.904143 11.022000 21.620197 -18.183914 -18.379209 -0.702877 -49.821223 -32.535131 -0.000000 -0.000002 0.000001 -0.923241 1.666280 12.511643 0.785128 -2.589738 33.726494 0.646537 -2.369187 30.523306 -0.000000 -0.000000 -0.000000 -9.492469 39.867831 22.160708 28.212936 8.112783 -5.951180 -16.504010 4.357377 19.704763 20.630988 10.337430 29.450331 -0.000001 -0.000002 -0.000001 -32.662508 -44.120672 -47.163330 30.490002 -16.036384 -2.800755 -28.463282 2.112228 22.922181 4.406511 -2.417544 12.579289 0.000003 0.000001 0.000002 
-1.346267 12.273712 -0.748566 79.573241 -5.224833 -3.199539 6.113918 -1.075269 -2.218470 -4.481860 -5.636463 0.886121 -3.955089 -5.890496 0.088784 -22.322255 2.465625 5.648675 8.814895 14.569297 0.173445 0.000000 -0.000000 0.000000 -30.458167 -39.952990 34.162994 -77.008559 4.595645 -39.719500 0.000038 -63.354840 0.000042 -107.183529 6.605883 26.799912 -1.882823 2.129440 -39.817035 2.947106 5.081748 -60.200584 0.514389 2.402419 -24.167380 -0.000000 -0.000000 0.000000 1.567991 0.456391 2.719338 19.473184 -1.474942 7.636912 -4.536195 -9.613087 1.492975 -0.000003 0.000000 0.000000 -21.623160 29.976433 6.676941 -46.863291 29.170806 29.161226 -0.000001 110.256158 0.000003 -43.855999 1.715081 -34.999850 8.377132 -4.904142 11.022001 21.620199 -18.183914 -18.379211 -0.702874 -49.821223 -32.535131 -0.000001 -0.000001 -0.000002 -0.932532 1.615209 12.737797 0.898997 -2.752484 36.169424 0.741650 -2.523446 32.751621 0.000001 -0.000000 0.000001 -10.060971 42.476339 25.174740 29.391595 5.409325 -6.418923 -16.156517 -1.980660 20.657812 22.590577 11.784731 33.166507 0.000001 0.000001 0.000002 -31.641883 -43.580780 -46.436571 32.301979 -14.665506 -2.641857 -29.058073 2.056179 21.828508 3.062851 -2.118026 11.490070 0.000001 0.000001 -0.000001 
-1.236150 12.523186 -0.717079 77.938032 -6.544576 -4.203216 6.179673 -0.398279 -2.182831 -4.478942 -5.198369 1.106434 -3.943851 -5.453638 0.307513 -14.979850 4.135157 1.250303 18.981278 12.355927 -0.420590 0.000000 0.000000 -0.000000 -30.469662 -42.545153 33.734543 -74.558447 6.962580 -38.109269 0.000065 -66.452652 0.000072 -103.668768 4.652160 27.051055 -1.882833 2.129413 -39.817021 2.947084 5.081738 -60.200502 0.514382 2.402407 -24.167392 -0.000004 -0.000001 0.000002 1.567995 0.456396 2.719342 19.473194 -1.474896 7.636922 -4.536186 -9.613074 1.492973 0.000001 0.000000 0.000000 -23.179666 34.194645 8.084945 -43.858099 23.669131 25.739465 0.000012 109.122155 -0.000009 -44.565530 5.453307 -28.442433 8.377129 -4.904143 11.021999 21.620199 -18.183912 -18.379211 -0.702877 -49.821223 -32.535128 0.000003 0.000000 -0.000000 -0.944255 1.548082 13.034981 1.059024 -2.958744 39.380883 0.875671 -2.720341 35.680840 0.000001 -0.000001 -0.000002 -10.768742 45.027626 28.529572 30.792846 1.873228 -7.253861 -13.240898 -8.354507 22.089554 19.992474 13.913924 41.769790 0.000002 -0.000000 0.000002 -30.733526 -42.319893 -45.475007 35.075023 -12.415365 -2.632287 -27.587607 1.989270 20.746860 1.512052 -1.601034 9.598411 -0.000000 0.000000 0.000001 
-1.026023 12.945633 -0.751793 76.244234 -8.620225 -5.355833 6.448276 0.369595 -1.907000 -4.287193 -4.710098 1.399608 -3.741636 -4.966313 0.591490 -7.467816 5.112925 -1.796106 28.713244 11.139419 -2.546865 0.000000 0.000000 -0.000000 -30.972405 -44.585313 32.497388 -72.409089 8.343286 -36.787443 0.000094 -69.927941 0.000098 -99.358844 3.171712 28.303862 -1.882829 2.129393 -39.816950 2.947057 5.081751 -60.200345 0.514385 2.402408 -24.167392 -0.000001 0.000001 -0.000002 1.568006 0.456396 2.719349 19.473209 -1.474804 7.636943 -4.536178 -9.613069 1.492984 0.000001 -0.000000 -0.000000 -26.071725 39.130294 11.635664 -41.684559 18.269825 22.774952 -0.000003 107.974158 0.000001 -45.593517 8.577815 -21.189269 8.377130 -4.904142 11.022001 21.620197 -18.183914 -18.379213 -0.702873 -49.821227 -32.535135 -0.000001 -0.000001 -0.000001 -0.956906 1.471948 13.372001 1.254225 -3.181376 43.024454 1.039666 -2.935009 39.004031 0.000000 -0.000001 -0.000002 -12.218982 47.293838 31.924328 32.348534 -1.425400 -8.208532 -8.256818 -13.489643 23.609087 20.919838 17.812618 43.679049 0.000001 0.000000 -0.000000 -30.266662 -40.297228 -44.053221 38.945711 -9.494271 -2.619371 -25.487992 1.430579 19.832933 -0.277312 -1.291300 8.171991 -0.000001 -0.000002 0.000000 
